<?xml version="1.0" encoding="UTF-8" standalone="no"?>
<!-- Created with Inkscape (http://www.inkscape.org/) -->

<svg
   width="210mm"
   height="297mm"
   viewBox="0 0 210 297"
   version="1.1"
   id="svg112"
   sodipodi:docname="aspas.svg"
   inkscape:version="1.1.1 (c3084ef, 2021-09-22)"
   xmlns:inkscape="http://www.inkscape.org/namespaces/inkscape"
   xmlns:sodipodi="http://sodipodi.sourceforge.net/DTD/sodipodi-0.dtd"
   xmlns="http://www.w3.org/2000/svg"
   xmlns:svg="http://www.w3.org/2000/svg">
  <sodipodi:namedview
     id="namedview114"
     pagecolor="#ffffff"
     bordercolor="#666666"
     borderopacity="1.0"
     inkscape:pageshadow="2"
     inkscape:pageopacity="0"
     inkscape:pagecheckerboard="true"
     inkscape:document-units="mm"
     showgrid="false"
     inkscape:zoom="0.51000984"
     inkscape:cx="235.28958"
     inkscape:cy="349.99325"
     inkscape:window-width="1312"
     inkscape:window-height="787"
     inkscape:window-x="0"
     inkscape:window-y="25"
     inkscape:window-maximized="0"
     inkscape:current-layer="layer1" />
  <defs
     id="defs109">
    <inkscape:path-effect
       effect="powerstroke"
       id="path-effect3485"
       is_visible="true"
       lpeversion="1"
       offset_points="0,0.85458966"
       not_jump="false"
       sort_points="true"
       interpolator_type="CubicBezierJohan"
       interpolator_beta="0.2"
       start_linecap_type="zerowidth"
       linejoin_type="extrp_arc"
       miter_limit="4"
       scale_width="1"
       end_linecap_type="zerowidth" />
    <inkscape:path-effect
       effect="bspline"
       id="path-effect3483"
       is_visible="true"
       lpeversion="1"
       weight="33.333333"
       steps="2"
       helper_size="0"
       apply_no_weight="true"
       apply_with_weight="true"
       only_selected="false" />
    <inkscape:path-effect
       effect="powerstroke"
       id="path-effect3479"
       is_visible="true"
       lpeversion="1"
       offset_points="0,0.5"
       not_jump="false"
       sort_points="true"
       interpolator_type="CubicBezierJohan"
       interpolator_beta="0.2"
       start_linecap_type="zerowidth"
       linejoin_type="extrp_arc"
       miter_limit="4"
       scale_width="1"
       end_linecap_type="zerowidth" />
    <inkscape:path-effect
       effect="powerstroke"
       id="path-effect3475"
       is_visible="true"
       lpeversion="1"
       offset_points="0,1.99"
       not_jump="false"
       sort_points="true"
       interpolator_type="CubicBezierJohan"
       interpolator_beta="0.2"
       start_linecap_type="zerowidth"
       linejoin_type="extrp_arc"
       miter_limit="4"
       scale_width="1"
       end_linecap_type="zerowidth" />
    <inkscape:path-effect
       effect="powerstroke"
       id="path-effect3469"
       is_visible="true"
       lpeversion="1"
       offset_points="0,1.99"
       not_jump="false"
       sort_points="true"
       interpolator_type="CubicBezierJohan"
       interpolator_beta="0.2"
       start_linecap_type="zerowidth"
       linejoin_type="extrp_arc"
       miter_limit="4"
       scale_width="1"
       end_linecap_type="zerowidth" />
  </defs>
  <g
     inkscape:label="Layer 1"
     inkscape:groupmode="layer"
     id="layer1">
    <path
       style="fill:#000000;stroke-width:0.684036"
       id="path164"
       d="" />
    <path
       style="fill:#f9f9f9;fill-rule:nonzero;stroke:#666666;stroke-width:0.452443px;stroke-linecap:butt;stroke-linejoin:miter;stroke-opacity:1"
       d="m 14.656467,169.92102 c 8.79583,0 26.387031,0 35.255322,0 8.868292,0 9.013677,0 9.10705,1.20528 0.09337,1.20529 0.135179,3.61532 -0.113757,6.58729 -0.248935,2.97197 -0.788526,6.5058 -1.537994,10.06964 -0.749468,3.56385 -1.70874,7.15757 -2.847915,10.2422 -1.139175,3.08463 -2.458177,5.66014 -3.627315,7.72656 -1.169139,2.06642 -2.188368,3.6237 -3.537379,5.48049 -1.34901,1.8568 -3.02773,4.01301 -4.916343,6.22919 -1.888613,2.21617 -3.987022,4.4922 -5.725715,6.19924 -1.738693,1.70703 -3.117657,2.84505 -4.706482,4.04298 -1.588825,1.19793 -3.387456,2.45574 -5.725706,3.77346 -2.338249,1.31773 -5.216074,2.69533 -7.824166,3.92322 -2.608093,1.22789 -4.946317,2.306 -6.62511,3.11461 -1.678793,0.80861 -2.6980176,1.34767 -3.3275997,1.70706 -0.6295821,0.3594 -0.8694025,0.53908 -1.0193301,9.64381 -0.1499277,9.10473 -0.209882,27.13321 -0.1796708,36.14742 0.030211,9.01421 0.1501104,9.01421 3.7474906,8.535 3.59738,-0.47921 10.672019,-1.43754 18.406376,-2.72533 7.734356,-1.2878 16.127992,-2.90497 23.202803,-4.5222 7.074811,-1.61724 12.830442,-3.23441 20.50484,-5.9298 7.674398,-2.69539 17.26713,-6.46881 26.200591,-10.51186 8.933463,-4.04306 17.207183,-8.35552 23.412623,-11.82954 6.20544,-3.47402 10.34229,-6.10941 14.839,-9.31391 4.4967,-3.2045 9.35303,-6.97792 13.25015,-10.27223 3.89711,-3.29431 6.83489,-6.1094 10.52219,-10.09255 3.6873,-3.98315 8.12394,-9.13416 11.69131,-13.7462 3.56737,-4.61204 6.26533,-8.68494 8.51368,-12.30869 2.24835,-3.62376 4.04699,-6.79822 6.05553,-10.63163 2.00854,-3.8334 4.22686,-8.32554 6.23539,-12.90765 2.00853,-4.58211 3.80716,-9.25395 5.33604,-13.8061 1.52889,-4.55215 2.78794,-8.98442 3.92713,-14.25535 1.13918,-5.27093 2.15842,-11.38026 2.90788,-16.95067 0.74947,-5.57041 1.2291,-10.60162 1.49892,-31.95511 0.26982,-21.353487 0.32978,-59.027688 0.36597,-78.14909 0.0362,-19.1214018 0.0486,-19.689188 -0.15726,-20.011124 C 207.55913,4.3075 207.13443,4.2317962 173.41761,4.2229778 139.70079,4.2141594 72.694573,4.2723164 39.173648,4.3013957 5.6527229,4.330475 5.6184029,4.330475 5.601021,4.3821178 c -0.017382,0.051643 -0.017382,0.1544755 0.019048,27.3973422 0.03643,27.242867 0.1092871,81.62358 0.145716,108.95253 0.036429,27.32894 0.036429,27.605 0.036429,27.82356 0,0.21857 0,0.37958 0.00976,0.59766 0.00976,0.21809 0.029246,0.49317 0.038994,0.63049 0.00975,0.13732 0.00975,0.13732 0.00975,0.13732 0,0 -7.86e-5,0 8.7957508,0 z"
       id="path3481"
       inkscape:path-effect="#path-effect3483;#path-effect3485"
       inkscape:original-d="m 5.8606376,169.92102 c 17.5916594,4.5e-4 35.1828604,4.5e-4 52.7736084,0 0.145835,4.5e-4 0.29122,4.5e-4 0.436149,0 0.04227,2.41056 0.08407,4.82059 0.125422,7.2302 -0.539157,3.53442 -1.078749,7.06825 -1.618804,10.60168 -0.958856,3.59432 -1.918128,7.18804 -2.877873,10.78138 -1.318599,2.57606 -2.637601,5.15157 -3.957079,7.72667 -1.018818,1.5578 -2.038042,3.11509 -3.057742,4.67194 -1.678343,2.15678 -3.357071,4.31299 -5.036282,6.46881 -2.098041,2.27658 -4.19645,4.55261 -6.295355,6.82823 -1.378558,1.13849 -2.757512,2.27652 -4.136946,3.4141 -1.798255,1.25832 -3.596893,2.51611 -5.396018,3.77349 -2.877479,1.37809 -5.755298,2.7557 -8.633623,4.13287 -2.33787,1.07861 -4.676096,2.15672 -7.014822,3.23441 -1.018819,0.53954 -2.0380462,1.07859 -3.0577464,1.6172 -0.2393741,0.18014 -0.4791931,0.35983 -0.7194687,0.53907 -0.059503,18.02971 -0.1194528,36.05819 -0.1798668,54.08661 0.1203765,4.4e-4 0.2402757,4.4e-4 0.3597335,0 7.0753714,-0.95791 14.1500084,-1.91625 21.2243304,-2.87504 8.394429,-1.61676 16.788063,-3.23394 25.181419,-4.85161 5.756316,-1.61678 11.511949,-3.23395 17.267248,-4.85163 9.593564,-3.77309 19.186289,-7.54652 28.778758,-11.32046 8.27452,-4.31218 16.54825,-8.62463 24.8217,-12.93764 4.13747,-2.63506 8.27432,-5.27046 12.41082,-7.90635 4.85697,-3.77312 9.7133,-7.54654 14.56924,-11.32046 2.93835,-2.81474 5.87612,-5.62983 8.81351,-8.44542 4.43725,-5.15076 8.87389,-10.30177 13.31016,-15.45333 2.69852,-4.07258 5.39649,-8.14547 8.09402,-12.21889 1.79917,-3.17414 3.59783,-6.34859 5.39602,-9.52357 2.21886,-4.49189 4.43719,-8.98402 6.65511,-13.47672 1.79914,-4.67158 3.59779,-9.34341 5.39599,-14.01582 1.25955,-4.43196 2.51861,-8.86422 3.77722,-13.29702 1.01973,-6.10913 2.03896,-12.21846 3.05776,-18.32836 0.48009,-5.03096 0.95973,-10.06217 1.43894,-15.09394 0.0603,-37.675256 0.12027,-75.349457 0.17986,-113.0248621 0.0137,-0.5673718 0.0253,-1.1351762 0.0373,-1.7034437 -0.42426,-0.075255 -0.84896,-0.1509546 -1.27411,-0.2271138 C 139.70079,4.2146084 72.694573,4.2727715 5.6865819,4.330475 c -0.033859,4.512e-4 -0.068179,4.512e-4 -0.1029428,0 4.533e-4,0.1032856 4.533e-4,0.2061183 0,0.3085014 0.07331,54.3833496 0.1461764,108.7640636 0.2185751,163.1454336 4.533e-4,0.27652 4.533e-4,0.55258 0,0.8282 4.533e-4,0.16151 4.533e-4,0.32252 0,0.48311 0.019932,0.27555 0.039417,0.55063 0.058461,0.8253 4.67e-4,4.5e-4 4.807e-4,4.5e-4 4.1e-5,0 z"
       sodipodi:nodetypes="cccccccccccccccccccccccccccccccccccccccccccccc" />
  </g>
</svg>
