<?xml version="1.0" encoding="UTF-8" standalone="no"?>
<!-- Created with Inkscape (http://www.inkscape.org/) -->

<svg
   width="210mm"
   height="297mm"
   viewBox="0 0 210 297"
   version="1.1"
   id="svg112"
   sodipodi:docname="aspas.svg"
   inkscape:version="1.1.1 (c3084ef, 2021-09-22)"
   xmlns:inkscape="http://www.inkscape.org/namespaces/inkscape"
   xmlns:sodipodi="http://sodipodi.sourceforge.net/DTD/sodipodi-0.dtd"
   xmlns="http://www.w3.org/2000/svg"
   xmlns:svg="http://www.w3.org/2000/svg">
  <sodipodi:namedview
     id="namedview114"
     pagecolor="#ffffff"
     bordercolor="#666666"
     borderopacity="1.0"
     inkscape:pageshadow="2"
     inkscape:pageopacity="0"
     inkscape:pagecheckerboard="true"
     inkscape:document-units="mm"
     showgrid="false"
     inkscape:zoom="0.51000984"
     inkscape:cx="675.47716"
     inkscape:cy="1024.49"
     inkscape:window-width="1312"
     inkscape:window-height="787"
     inkscape:window-x="0"
     inkscape:window-y="25"
     inkscape:window-maximized="0"
     inkscape:current-layer="layer1" />
  <defs
     id="defs109">
    <inkscape:path-effect
       effect="powerstroke"
       id="path-effect3485"
       is_visible="true"
       lpeversion="1"
       offset_points="0,0.85458966"
       not_jump="false"
       sort_points="true"
       interpolator_type="CubicBezierJohan"
       interpolator_beta="0.2"
       start_linecap_type="zerowidth"
       linejoin_type="extrp_arc"
       miter_limit="4"
       scale_width="1"
       end_linecap_type="zerowidth" />
    <inkscape:path-effect
       effect="bspline"
       id="path-effect3483"
       is_visible="true"
       lpeversion="1"
       weight="33.333333"
       steps="2"
       helper_size="0"
       apply_no_weight="true"
       apply_with_weight="true"
       only_selected="false" />
    <inkscape:path-effect
       effect="powerstroke"
       id="path-effect3479"
       is_visible="true"
       lpeversion="1"
       offset_points="0,0.5"
       not_jump="false"
       sort_points="true"
       interpolator_type="CubicBezierJohan"
       interpolator_beta="0.2"
       start_linecap_type="zerowidth"
       linejoin_type="extrp_arc"
       miter_limit="4"
       scale_width="1"
       end_linecap_type="zerowidth" />
    <inkscape:path-effect
       effect="powerstroke"
       id="path-effect3475"
       is_visible="true"
       lpeversion="1"
       offset_points="0,1.99"
       not_jump="false"
       sort_points="true"
       interpolator_type="CubicBezierJohan"
       interpolator_beta="0.2"
       start_linecap_type="zerowidth"
       linejoin_type="extrp_arc"
       miter_limit="4"
       scale_width="1"
       end_linecap_type="zerowidth" />
    <inkscape:path-effect
       effect="powerstroke"
       id="path-effect3469"
       is_visible="true"
       lpeversion="1"
       offset_points="0,1.99"
       not_jump="false"
       sort_points="true"
       interpolator_type="CubicBezierJohan"
       interpolator_beta="0.2"
       start_linecap_type="zerowidth"
       linejoin_type="extrp_arc"
       miter_limit="4"
       scale_width="1"
       end_linecap_type="zerowidth" />
  </defs>
  <g
     inkscape:label="Layer 1"
     inkscape:groupmode="layer"
     id="layer1">
    <path
       style="fill:#000000;stroke-width:0.684036"
       id="path164"
       d="" />
    <path
       style="fill:#ffffff;fill-rule:nonzero;stroke:#000000;stroke-width:0.45222px;stroke-linecap:butt;stroke-linejoin:miter;stroke-opacity:1"
       d="m 14.647415,169.39187 c 8.787158,0 26.361014,0 35.220562,0 8.859549,0 9.00479,0 9.098071,1.20528 0.09328,1.20529 0.135046,3.61532 -0.113644,6.58729 -0.248689,2.97197 -0.787748,6.5058 -1.536479,10.06965 -0.74873,3.56386 -1.707055,7.15758 -2.845107,10.24221 -1.138051,3.08463 -2.455753,5.66014 -3.623739,7.72656 -1.167985,2.06642 -2.18621,3.6237 -3.533889,5.4805 -1.347679,1.85679 -3.024749,4.01302 -4.911499,6.2292 -1.886749,2.21617 -3.98309,4.49221 -5.720069,6.19924 -1.736979,1.70703 -3.114583,2.84505 -4.701842,4.04298 -1.587258,1.19794 -3.384116,2.45574 -5.72006,3.77346 -2.335945,1.31773 -5.210932,2.69533 -7.816453,3.92322 -2.605521,1.22789 -4.94144,2.306 -6.618576,3.11461 -1.677136,0.80862 -2.6953579,1.34768 -3.32432,1.70708 -0.6289621,0.3594 -0.868546,0.53908 -1.0183256,9.64381 -0.1497795,9.10473 -0.2096748,27.13323 -0.1794934,36.14745 0.030181,9.01422 0.1499624,9.01422 3.743796,8.53501 3.593833,-0.47921 10.661497,-1.43754 18.388229,-2.72534 7.726733,-1.2878 16.112092,-2.90498 23.179927,-4.52221 7.067834,-1.61724 12.817792,-3.23441 20.484623,-5.9298 7.666832,-2.69539 17.250106,-6.46881 26.174757,-10.51187 8.924646,-4.04306 17.190226,-8.35553 23.389546,-11.82955 6.19932,-3.47402 10.33209,-6.10941 14.82436,-9.31391 4.49227,-3.2045 9.34381,-6.97792 13.23709,-10.27224 3.89328,-3.29432 6.82816,-6.10941 10.51183,-10.09256 3.68366,-3.98315 8.11592,-9.13416 11.67978,-13.74621 3.56385,-4.61204 6.25915,-8.68494 8.50528,-12.3087 2.24613,-3.62375 4.043,-6.79821 6.04956,-10.63162 2.00655,-3.83341 4.22269,-8.32557 6.22924,-12.90768 2.00655,-4.58211 3.80341,-9.25395 5.33079,-13.80611 1.52738,-4.55216 2.78519,-8.98442 3.92325,-14.25536 1.13806,-5.27093 2.15628,-11.38026 2.90501,-16.95068 0.74872,-5.57042 1.22789,-10.60163 1.49744,-31.95513 0.26955,-21.353506 0.32945,-59.027736 0.36561,-78.149152 0.0361,-19.1214168 0.0486,-19.6892034 -0.15708,-20.011139 C 207.35992,3.7782234 206.93563,3.7025189 173.25205,3.6937002 139.56846,3.6848814 72.628309,3.7430385 39.140433,3.7721178 5.6525575,3.8011971 5.6182715,3.8011971 5.6009064,3.8528399 c -0.017365,0.051643 -0.017365,0.1544757 0.019029,27.3973631 0.036394,27.242888 0.1091794,81.623647 0.1455723,108.952617 0.036393,27.32896 0.036393,27.60502 0.036393,27.82358 0,0.21857 0,0.37958 0.00975,0.59766 0.00975,0.21809 0.029217,0.49317 0.038955,0.63049 0.00974,0.13732 0.00974,0.13732 0.00974,0.13732 0,0 -8.82e-5,0 8.7870702,0 z"
       id="path3481"
       inkscape:path-effect="#path-effect3483;#path-effect3485"
       inkscape:original-d="m 5.8602566,169.92104 c 17.5743164,4.5e-4 35.1481724,4.5e-4 52.7215784,0 0.145691,4.5e-4 0.290932,4.5e-4 0.435718,0 0.04223,2.41056 0.08399,4.82059 0.125299,7.2302 -0.538625,3.53442 -1.077686,7.06825 -1.617208,10.60169 -0.957911,3.59433 -1.916238,7.18805 -2.875036,10.78139 -1.317299,2.57606 -2.635001,5.15157 -3.953177,7.72667 -1.017814,1.5578 -2.036033,3.11509 -3.054728,4.67194 -1.676688,2.15678 -3.353761,4.31301 -5.031316,6.46883 -2.095973,2.27658 -4.192314,4.55261 -6.289148,6.82823 -1.3772,1.13849 -2.754794,2.27652 -4.132868,3.4141 -1.796482,1.25832 -3.593347,2.51611 -5.390698,3.77349 -2.874642,1.37809 -5.749624,2.7557 -8.625111,4.13287 -2.335565,1.07861 -4.671486,2.15672 -7.007906,3.23441 -1.017814,0.53954 -2.0360367,1.0786 -3.0547315,1.61722 -0.2391382,0.18014 -0.4787207,0.35983 -0.7187594,0.53907 -0.059445,18.02971 -0.119335,36.05821 -0.1796895,54.08665 0.1202578,4.4e-4 0.2400388,4.4e-4 0.3593788,0 7.0683956,-0.95791 14.1360576,-1.91625 21.2034056,-2.87504 8.386152,-1.61678 16.771511,-3.23396 25.156591,-4.85163 5.750641,-1.61678 11.5006,-3.23395 17.250225,-4.85163 9.584105,-3.77309 19.167372,-7.54652 28.750384,-11.32046 8.26636,-4.31218 16.53194,-8.62465 24.79722,-12.93766 4.1334,-2.63506 8.26617,-5.27046 12.39859,-7.90635 4.85218,-3.77312 9.70372,-7.54654 14.55488,-11.32048 2.93545,-2.81474 5.87033,-5.62983 8.80482,-8.44542 4.43288,-5.15076 8.86514,-10.30177 13.29704,-15.45333 2.69585,-4.0726 5.39116,-8.14549 8.08604,-12.21891 1.79739,-3.17414 3.59427,-6.34859 5.3907,-9.52357 2.21667,-4.49189 4.43281,-8.98404 6.64854,-13.47674 1.79737,-4.67158 3.59425,-9.34341 5.39068,-14.01582 1.25831,-4.43198 2.51612,-8.86424 3.77349,-13.29704 1.01872,-6.10913 2.03695,-12.21846 3.05474,-18.32838 0.47963,-5.03096 0.95879,-10.06217 1.43752,-15.09394 0.0603,-37.675288 0.12015,-75.349518 0.17968,-113.0249519 0.0137,-0.5673723 0.0253,-1.1351771 0.0373,-1.703445 -0.42384,-0.075255 -0.84813,-0.1509548 -1.27287,-0.227114 -66.94237,0.058608 -133.882521,0.1167712 -200.8244475,0.1744747 -0.033825,4.512e-4 -0.068111,4.512e-4 -0.1028413,0 4.529e-4,0.1032857 4.529e-4,0.2061185 0,0.3085017 0.073238,54.3833915 0.1460323,108.7641545 0.2183596,163.1455645 4.529e-4,0.27652 4.529e-4,0.55258 0,0.8282 4.529e-4,0.16151 4.529e-4,0.32252 0,0.48311 0.019912,0.27555 0.039379,0.55063 0.058403,0.8253 4.666e-4,4.5e-4 4.803e-4,4.5e-4 4.1e-5,0 z"
       sodipodi:nodetypes="cccccccccccccccccccccccccccccccccccccccccccccc" />
  </g>
</svg>
