<?xml version="1.0" encoding="UTF-8" standalone="no"?>
<!-- Created with Inkscape (http://www.inkscape.org/) -->

<svg
   width="320mm"
   height="320mm"
   viewBox="0 0 320 320"
   version="1.1"
   id="svg112"
   sodipodi:docname="logo.svg"
   inkscape:version="1.1.1 (c3084ef, 2021-09-22)"
   inkscape:export-filename="/Users/ranierjardim/FlutterApps/fugacidade/assets/icons/logo.png"
   inkscape:export-xdpi="96"
   inkscape:export-ydpi="96"
   xmlns:inkscape="http://www.inkscape.org/namespaces/inkscape"
   xmlns:sodipodi="http://sodipodi.sourceforge.net/DTD/sodipodi-0.dtd"
   xmlns="http://www.w3.org/2000/svg"
   xmlns:svg="http://www.w3.org/2000/svg">
  <sodipodi:namedview
     id="namedview114"
     pagecolor="#29303c"
     bordercolor="#666666"
     borderopacity="1.0"
     inkscape:pageshadow="2"
     inkscape:pageopacity="1"
     inkscape:pagecheckerboard="true"
     inkscape:document-units="mm"
     showgrid="false"
     inkscape:zoom="0.51000984"
     inkscape:cx="308.81757"
     inkscape:cy="610.77253"
     inkscape:window-width="1312"
     inkscape:window-height="787"
     inkscape:window-x="0"
     inkscape:window-y="25"
     inkscape:window-maximized="0"
     inkscape:current-layer="layer1"
     height="210mm" />
  <defs
     id="defs109">
    <inkscape:path-effect
       effect="powerstroke"
       id="path-effect3485"
       is_visible="true"
       lpeversion="1"
       offset_points="0,0.60898724"
       not_jump="false"
       sort_points="true"
       interpolator_type="CubicBezierJohan"
       interpolator_beta="0.2"
       start_linecap_type="zerowidth"
       linejoin_type="extrp_arc"
       miter_limit="4"
       scale_width="1"
       end_linecap_type="zerowidth" />
    <inkscape:path-effect
       effect="bspline"
       id="path-effect3483"
       is_visible="true"
       lpeversion="1"
       weight="33.333333"
       steps="2"
       helper_size="0"
       apply_no_weight="true"
       apply_with_weight="true"
       only_selected="false" />
    <inkscape:path-effect
       effect="powerstroke"
       id="path-effect3479"
       is_visible="true"
       lpeversion="1"
       offset_points="0,0.5"
       not_jump="false"
       sort_points="true"
       interpolator_type="CubicBezierJohan"
       interpolator_beta="0.2"
       start_linecap_type="zerowidth"
       linejoin_type="extrp_arc"
       miter_limit="4"
       scale_width="1"
       end_linecap_type="zerowidth" />
    <inkscape:path-effect
       effect="powerstroke"
       id="path-effect3475"
       is_visible="true"
       lpeversion="1"
       offset_points="0,1.99"
       not_jump="false"
       sort_points="true"
       interpolator_type="CubicBezierJohan"
       interpolator_beta="0.2"
       start_linecap_type="zerowidth"
       linejoin_type="extrp_arc"
       miter_limit="4"
       scale_width="1"
       end_linecap_type="zerowidth" />
    <inkscape:path-effect
       effect="powerstroke"
       id="path-effect3469"
       is_visible="true"
       lpeversion="1"
       offset_points="0,1.99"
       not_jump="false"
       sort_points="true"
       interpolator_type="CubicBezierJohan"
       interpolator_beta="0.2"
       start_linecap_type="zerowidth"
       linejoin_type="extrp_arc"
       miter_limit="4"
       scale_width="1"
       end_linecap_type="zerowidth" />
  </defs>
  <g
     inkscape:label="Layer 1"
     inkscape:groupmode="layer"
     id="layer1">
    <path
       style="fill:#000000;stroke-width:0.684036"
       id="path164"
       d="" />
    <path
       style="fill:#bff94f;fill-opacity:1;fill-rule:nonzero;stroke:none;stroke-width:0.322255px;stroke-linecap:butt;stroke-linejoin:miter;stroke-opacity:1"
       d="m 98.572603,174.35111 c 6.036047,0 18.107807,0 24.193567,0 6.08576,0 6.18553,0 6.24961,0.89102 0.0641,0.89101 0.0928,2.67265 -0.078,4.86972 -0.17082,2.19707 -0.54111,4.80949 -1.05543,7.44411 -0.51432,2.63462 -1.1726,5.29132 -1.95435,7.57167 -0.78175,2.28035 -1.6869,4.18433 -2.48921,5.71195 -0.80231,1.52762 -1.50174,2.67886 -2.42749,4.05151 -0.92575,1.37266 -2.07776,2.96668 -3.37379,4.605 -1.29604,1.63833 -2.73605,3.32091 -3.92921,4.58286 -1.19316,1.26194 -2.13945,2.10323 -3.22977,2.98881 -1.09031,0.88559 -2.3246,1.81543 -3.9292,2.78957 -1.6046,0.97413 -3.57947,1.99254 -5.36925,2.90027 -1.789778,0.90773 -3.394361,1.70474 -4.546412,2.30252 -1.152051,0.59777 -1.851485,0.99628 -2.28353,1.26197 -0.432045,0.2657 -0.596621,0.39853 -0.699493,7.12929 -0.102873,6.73076 -0.144016,20.05852 -0.123283,26.72238 0.02073,6.66386 0.103011,6.66386 2.571669,6.3096 2.468658,-0.35426 7.323569,-1.06272 12.631179,-2.01474 5.30761,-0.95202 11.06765,-2.14754 15.92265,-3.3431 4.85501,-1.19555 8.80475,-2.39107 14.07121,-4.38366 5.26646,-1.99259 11.84937,-4.78213 17.97986,-7.771 6.13049,-2.98888 11.80824,-6.17691 16.06665,-8.74512 4.25841,-2.56821 7.09728,-4.51645 10.18309,-6.8854 3.08581,-2.36896 6.4184,-5.1585 9.09276,-7.59387 2.67436,-2.43536 4.69037,-4.51644 7.22074,-7.46102 2.53037,-2.94459 5.57497,-6.75253 8.02304,-10.16203 2.44807,-3.40951 4.29952,-6.42044 5.84242,-9.09934 1.5429,-2.6789 2.7772,-5.02566 4.15553,-7.85955 1.37834,-2.83389 2.90064,-6.15476 4.27897,-9.54213 1.37833,-3.38737 2.61262,-6.84108 3.66181,-10.20632 1.04918,-3.36524 1.91319,-6.64184 2.69494,-10.53843 0.78175,-3.8966 1.48119,-8.41299 1.9955,-12.53098 0.51431,-4.11799 0.84346,-7.83737 1.02862,-23.62317 0.18516,-15.7858 0.2263,-43.636867 0.25113,-57.772573 0.0248,-14.135706 0.0334,-14.555459 -0.1079,-14.793453 -0.14128,-0.237993 -0.43273,-0.293959 -23.57052,-0.300479 -23.13779,-0.0065 -69.12005,0.03647 -92.12342,0.05797 -23.003362,0.0215 -23.026912,0.0215 -23.038837,0.05967 -0.01193,0.03818 -0.01193,0.1142 0.01308,20.253795 0.025,20.139595 0.075,60.341127 0.1,80.544357 0.025,20.20323 0.025,20.40731 0.025,20.56889 0,0.16157 0,0.2806 0.0067,0.44182 0.0067,0.16122 0.02007,0.36458 0.02676,0.46609 0.0067,0.10152 0.0067,0.10152 0.0067,0.10152 0,0 -7.6e-5,0 6.035972,0 z"
       id="path3481"
       inkscape:path-effect="#path-effect3483;#path-effect3485"
       inkscape:original-d="m 93.065722,174.35111 c 12.072098,3.3e-4 24.143858,3.3e-4 36.215308,0 0.10007,3.3e-4 0.19984,3.3e-4 0.2993,0 0.029,1.78203 0.0577,3.56367 0.0861,5.345 -0.36999,2.61286 -0.74028,5.22528 -1.11089,7.83741 -0.658,2.65715 -1.31629,5.31385 -1.9749,7.97026 -0.90488,1.90438 -1.81003,3.80836 -2.7155,5.71203 -0.69916,1.15162 -1.39858,2.30286 -2.09835,3.45378 -1.15174,1.59442 -2.30375,3.18844 -3.45609,4.78215 -1.43975,1.68298 -2.87976,3.36556 -4.32011,5.04784 -0.94602,0.84164 -1.89231,1.68294 -2.83893,2.52391 -1.23403,0.93023 -2.46833,1.86006 -3.70296,2.78959 -1.97464,1.01877 -3.94951,2.03718 -5.92474,3.05527 -1.604338,0.79737 -3.20892,1.59438 -4.813843,2.39107 -0.699153,0.39886 -1.398586,0.79737 -2.098345,1.19555 -0.164267,0.13317 -0.328841,0.26601 -0.493727,0.39851 -0.04084,13.32866 -0.08197,26.65642 -0.123432,39.98414 0.08261,3.2e-4 0.164887,3.2e-4 0.246863,0 4.855394,-0.70815 9.710304,-1.41661 14.564974,-2.12541 5.76058,-1.19522 11.52062,-2.39074 17.28046,-3.58662 3.95021,-1.19522 7.89995,-2.39073 11.84945,-3.58662 6.58348,-2.78929 13.16638,-5.57884 19.74911,-8.36877 5.6783,-3.18782 11.35605,-6.37586 17.0336,-9.5643 2.8393,-1.948 5.67817,-3.89624 8.51679,-5.84485 3.33304,-2.78932 6.66564,-5.57886 9.99798,-8.36879 2.01641,-2.08083 4.03242,-4.16191 6.04817,-6.24337 3.04501,-3.80775 6.0896,-7.61569 9.13395,-11.42403 1.85182,-3.01072 3.70327,-6.02165 5.55443,-9.03296 1.23465,-2.34652 2.46896,-4.69327 3.70295,-7.04041 1.52267,-3.32067 3.04497,-6.64154 4.56699,-9.96282 1.23464,-3.45351 2.46895,-6.90721 3.70294,-10.36134 0.86436,-3.27639 1.72837,-6.55299 2.59207,-9.82998 0.69978,-4.51624 1.39922,-9.03263 2.09835,-13.54945 0.32947,-3.71919 0.65861,-7.43857 0.98746,-11.15836 0.0414,-27.85184 0.0825,-55.702907 0.12342,-83.554873 0.009,-0.419436 0.0174,-0.839192 0.0256,-1.25929 -0.29114,-0.05563 -0.58259,-0.111595 -0.87435,-0.167897 -45.98377,0.04333 -91.96603,0.08632 -137.949525,0.128983 -0.02324,3.33e-4 -0.04679,3.33e-4 -0.07064,0 3.11e-4,0.07635 3.11e-4,0.152375 0,0.228062 0.05031,40.203503 0.100312,80.405035 0.149995,120.607075 3.11e-4,0.20442 3.11e-4,0.4085 0,0.61225 3.11e-4,0.1194 3.11e-4,0.23843 0,0.35715 0.01368,0.2037 0.02705,0.40706 0.04012,0.61011 3.2e-4,3.3e-4 3.3e-4,3.3e-4 2.8e-5,0 z"
       sodipodi:nodetypes="cccccccccccccccccccccccccccccccccccccccccccccc"
       inkscape:export-filename="/Users/ranierjardim/FlutterApps/fugacidade/assets/icons/path3481.png"
       inkscape:export-xdpi="96"
       inkscape:export-ydpi="96" />
  </g>
</svg>
